{"title":"The Devil's Advocate 1997 DVD9rip English Klam","uid":5891351,"size":2419101717,"categoryP":"video","categoryS":"movies","magnet":"?xt=urn:btih:34648e3c3705be0e874b50250ce6a3b6c74560a8&amp;dn=The+Devil%5C%27s+Advocate+1997+DVD9rip+English+Klam&amp;tr=udp%3A%2F%2Ftracker.openbittorrent.com%3A80&amp;tr=udp%3A%2F%2Fopen.demonii.com%3A1337&amp;tr=udp%3A%2F%2Ftracker.coppersurfer.tk%3A6969&amp;tr=udp%3A%2F%2Fexodus.desync.com%3A6969","seeders":1,"leechers":1,"uploader":"Klambake","files":-1,"time":1287262374,"description":"With: Keanu Reeves, Al Pacino en Charlize Theron\n\nBased on a book by Andrew Neiderman, the film centers on a young lawyer who joins a New York firm only to discover that his boss has an increasingly bizarre personality. \n\nGeneral:\n\nComplete name                    : Klambake\\The Devil's\\Advocate.avi\nFormat                           : AVI\nFormat/Info                      : Audio Video Interleave\nFile size                        : 2.25 GiB\nDuration                         : 2h 18mn\nOverall bit rate                 : 2 335 Kbps\n\nVideo:\n\nFormat                           : MPEG-4 Visual\nFormat profile                   : Simple@L3\nFormat settings, BVOP            : No\nFormat settings, QPel            : No\nFormat settings, GMC             : No warppoints\nFormat settings, Matrix          : Default (H.263)\nCodec ID                         : XVID\nCodec ID/Hint                    : XviD\nDuration                         : 2h 18mn\nBit rate                         : 1 941 Kbps\nWidth                            : 720 pixels\nHeight                           : 576 pixels\nDisplay aspect ratio             : 5:4\nFrame rate                       : 25.000 fps\nStandard                         : PAL\nColor space                      : YUV\nChroma subsampling               : 4:2:0\nBit depth                        : 8 bits\nScan type                        : Progressive\nBits/(Pixel*Frame)               : 0.187\nStream size                      : 1.87 GiB (83%)\nWriting library                  : XviD 1.1.2 (UTC 2006-11-01)\n\nAudio:\n\nFormat                           : AC-3\nFormat/Info                      : Audio Coding 3\nMode extension                   : CM (complete main)\nCodec ID                         : 2000\nDuration                         : 2h 18mn\nBit rate mode                    : Constant\nBit rate                         : 384 Kbps\nChannel(s)                       : 6 channels\nChannel positions                : Front: L C R, Side: L R, LFE\nSampling rate                    : 48.0 KHz\nBit depth                        : 16 bits\nStream size                      : 379 MiB (16%)\nAlignment                        : Aligned on interleaves\nInterleave, duration             : 32 ms (0.80 video frame)\nInterleave, preload duration     : 64 ms","torrent":{"xt":"urn:btih:34648e3c3705be0e874b50250ce6a3b6c74560a8","amp;dn":"The+Devil%5C%27s+Advocate+1997+DVD9rip+English+Klam","amp;tr":["udp%3A%2F%2Ftracker.openbittorrent.com%3A80","udp%3A%2F%2Fopen.demonii.com%3A1337","udp%3A%2F%2Ftracker.coppersurfer.tk%3A6969","udp%3A%2F%2Fexodus.desync.com%3A6969"],"infoHash":"34648e3c3705be0e874b50250ce6a3b6c74560a8","infoHashBuffer":{"type":"Buffer","data":[52,100,142,60,55,5,190,14,135,75,80,37,12,230,163,182,199,69,96,168]},"announce":[],"urlList":[]}}